<?xml version="1.0" encoding="utf-8"?>
<!-- Generator: Adobe Illustrator 23.0.1, SVG Export Plug-In . SVG Version: 6.00 Build 0)  -->
<svg version="1.1" id="logo" xmlns="http://www.w3.org/2000/svg" xmlns:xlink="http://www.w3.org/1999/xlink" x="0px" y="0px"
	 viewBox="0 0 431.4 232" style="enable-background:new 0 0 431.4 232;" xml:space="preserve">
<style type="text/css">
	.st0{fill:#F40B53;}
	.st1{font-family:'Candara';}
	.st2{font-size:63px;}
	.st3{fill:#041A04;}
	.st4{font-family:'Candara-Italic';}
	.st5{font-size:50px;}
	.st6{fill:#CFEF1A;}
</style>
<g>
	<text transform="matrix(1 0 0 1 178.6998 143.4947)" class="st0 st1 st2">Goodson</text>
	<text transform="matrix(1 0 0 1 197.2527 187.7871)" class="st3 st4 st5">Gardens</text>
	<g id="icon">
		<path class="st6" d="M178.6,206.5c0.8-0.2-2.6-10.7-2.2-24.5c0.2-6,1.4-7.8,0.7-12.6c-0.9-6.8-4.2-12.1-6.8-15.5
			c-3.4,3.7-8.2,8.3-14.7,12.5c-9.2,5.9-17.9,8.6-23.9,9.9c5.7,5.5,11,8.4,14.8,10c3.7,1.6,8.1,2.8,12.2,4c8.9,2.5,10.1,2.1,12.6,4
			C177.4,198.7,177.9,206.7,178.6,206.5z"/>
		<circle class="st0" cx="123.5" cy="117.3" r="50"/>
		<path class="st0" d="M122.2,6.5c-0.7,0,0.9,10-4,20c-3.1,6.3-6.1,7.2-10,13c-3.1,4.6-6.5,12.1-6.7,24c2.7-1.9,10.5-7,21.7-7
			c11.4,0,19.4,5.1,22,7c1.4-14.6-2.3-21.9-6-26c-4.3-4.7-8-4.5-12-10C120.6,18.4,122.9,6.5,122.2,6.5z"/>
		<path class="st0" d="M40.7,47.5c6.6,6.7,9.1,13,10,18c1.2,6.7-0.7,10.2,1,16c2.1,6.9,7.7,11.6,13.3,14.8
			c1.8-4.2,4.9-10.6,10.7-16.8c7.3-8,15.3-11.9,20-13.8c-8.1-7.7-15.1-9.7-20-10.2c-6.7-0.6-10.1,1.8-17,1
			C50.7,55.6,44.6,51.1,40.7,47.5z"/>
		<path class="st0" d="M115.8,196.3c-6,5.5-13.3,1.6-21.4,7.9c-7.8,6-9.9,15.8-10.8,15.5c-1.1-0.4,6.5-14.9,1.1-22
			c-0.9-1.1-2-1.9-4.8-5.2c-2.6-3.2-4.4-5.8-4.7-6.2c-4.6-7.2,1.5-25.7,2.2-27.6c1,1.3,2.9,3.8,6,6.4c5,4.2,9.7,5.9,12.7,7
			c9.8,3.5,19,3.5,24.7,3C122.1,187.5,119.1,193.3,115.8,196.3z"/>
		<path class="st0" d="M15.3,139.5c9.3-1.2,15.9,0.5,20.4,2.8c6.5,3.3,7.5,5.9,13.4,8.8c4.9,2.4,12.6,4.3,24.4,1.4
			c-2.2-1.7-5.3-4.7-8-9c-3.4-5.5-4.5-10.4-5-13c-0.6-2.8-1.5-7.7-0.4-14c0.9-5.5,3-9.6,4.4-12c-12,2.5-18.3,7.6-21.8,11.8
			c-4.6,5.5-4.4,8.9-9.4,14.2C27.7,136.3,20.5,138.5,15.3,139.5z"/>
		<path class="st0" d="M192.1,57c-2.8,1.2-3.9,0.5-12.8,0.8c-4.1,0.1-8.6,0.3-12.4,0.9c-4,0.7-9.6,2.2-16.4,6.4
			c5.2,2.8,12.5,7.7,19.5,15.9c4.9,5.8,8.2,11.6,10.3,16.2c3.3-2.7,7.8-7.2,10.5-13.8c1.9-4.6,1.3-6.8,2.7-12.8
			c3.3-13.9,9.3-23.6,8.6-24C201.4,46.2,198.8,54,192.1,57z"/>
	</g>
</g>
<g id="Brand">
</g>
</svg>
