<?xml version="1.0" encoding="utf-8"?>
<!-- Generator: Adobe Illustrator 23.0.1, SVG Export Plug-In . SVG Version: 6.00 Build 0)  -->
<svg version="1.1" id="Layer_1" xmlns="http://www.w3.org/2000/svg" xmlns:xlink="http://www.w3.org/1999/xlink" x="0px" y="0px"
	 viewBox="0 0 224 173" style="enable-background:new 0 0 224 173;" xml:space="preserve">
<style type="text/css">
	.st0{fill:#E60B55;}
</style>
<g id="icon">
	<g>
		<path class="st0" d="M113.8,156.2c-15.3,0-22.3-38.2-22.3-73.7S95.4,9,110.7,9s25.4,38,25.4,73.5
			C136.2,118,129.2,156.2,113.8,156.2z M113.8,16.8c-1.3,0-5.3,3.1-9.1,17.4c-3.4,12.8-5.2,30-5.2,48.3s1.9,35.4,5.2,48.3
			c3.8,14.3,7.8,17.4,9.1,17.4s5.3-3.1,9.1-17.4c3.4-12.8,5.2-30,5.2-48.3s-1.9-35.4-5.2-48.3C119.2,19.9,115.1,16.8,113.8,16.8z"/>
		<path class="st0" d="M116.8,155.6c-0.6,0-1.3-0.1-1.9-0.2c-1.8-0.4-4.5-1.6-6.6-5c-6.2-10.2-4.8-37.3,3.4-67.5
			c8.9-32.5,25.1-66,39.7-62.9c1.8,0.4,4.5,1.6,6.6,5c6.2,10.2,4.8,37.3-3.4,67.5C146.1,123.6,130.9,155.6,116.8,155.6z M149.4,27.8
			c-5.1,0-19.6,19.3-29.9,57.3c-8.4,31-8.6,54.2-4.3,61.2c0.3,0.5,0.8,1.2,1.4,1.4c4.7,1,19.7-18.3,30.3-57.2
			c8.4-31,8.6-54.2,4.3-61.2c-0.3-0.5-0.8-1.3-1.4-1.4C149.6,27.8,149.5,27.8,149.4,27.8z"/>
		<path class="st0" d="M130.7,158.2c-1.2,0-2.3-0.2-3.4-0.6c-1.8-0.7-4.4-2.3-5.9-6.2c-4.4-10.9,1.2-35.4,14.3-62.2
			C150.1,59.4,171.7,32,185,37c1.8,0.7,4.4,2.3,5.9,6.2c4.4,10.9-1.2,35.4-14.3,62.2l0,0C163.4,132.7,144.1,158.2,130.7,158.2z
			 M181.4,44.3c-5.6,0-22.6,15.6-38.5,48.3c-13.1,27-16.9,48.5-14,55.8c0.4,0.9,0.8,1.5,1.3,1.7c4.6,1.7,22.6-13.7,39.3-48.2
			c13.1-27,16.9-48.5,14-55.8c-0.4-0.9-0.8-1.5-1.3-1.7C181.9,44.3,181.7,44.3,181.4,44.3z"/>
		<path class="st0" d="M131.3,158.6c-1.9,0-3.7-0.4-5.1-1.4c-1.5-1-3.4-2.9-4-6.5c-1.6-10,8.2-29.8,25.1-50.4
			c17.9-21.9,42.2-42.4,53.1-35.4c1.5,1,3.4,2.9,4,6.5c1.6,10-8.2,29.8-25.1,50.4C163.7,140.7,143.5,158.6,131.3,158.6z M195,71.4
			c-4.9,0-21.8,9.7-41.6,34c-16.5,20.2-24.4,37.8-23.4,44.1c0.1,0.5,0.2,0.9,0.4,1c3,1.9,21-7.3,42.6-33.7
			c16.5-20.2,24.4-37.8,23.4-44.1c-0.1-0.5-0.2-0.9-0.4-1C195.8,71.4,195.4,71.4,195,71.4z"/>
		<path class="st0" d="M128.6,155.9c-3.9,0-7-1-8.9-3.3c-1-1.2-2-3.3-1.5-6.5c1.9-10.7,21.4-26.2,37.6-36.3l0,0
			c17.1-10.6,48.3-25.9,56.4-15.7c1,1.2,2,3.3,1.5,6.5c-1.9,10.7-21.4,26.2-37.6,36.3C163,145,141.5,155.9,128.6,155.9z
			 M126.1,147.6c3.1,1.9,21.2-2.3,45.8-17.6c24.8-15.4,34-28,34-31.1c-3.1-1.9-21.2,2.3-45.8,17.6l0,0
			C135.3,131.9,126.1,144.6,126.1,147.6z"/>
		<path class="st0" d="M111.7,155.6c-14.1,0-29.3-32.1-37.8-63.1l0,0c-8.2-30.2-9.6-57.3-3.4-67.5c2.1-3.5,4.7-4.6,6.6-5
			c14.6-3.1,30.8,30.4,39.7,62.9c8.2,30.2,9.6,57.3,3.4,67.5c-2.1,3.5-4.7,4.6-6.6,5C112.9,155.6,112.3,155.6,111.7,155.6z
			 M79.1,27.8c-0.1,0-0.3,0-0.4,0c-0.6,0.1-1.1,0.9-1.4,1.4c-4.3,7-4.1,30.3,4.3,61.2l0,0c10.6,38.9,25.6,58.2,30.3,57.2
			c0.6-0.1,1.1-0.9,1.4-1.4c4.3-7,4.1-30.3-4.3-61.2C98.7,47.1,84.2,27.8,79.1,27.8z"/>
		<path class="st0" d="M97.8,158.2c-13.4,0-32.7-25.4-45.9-52.8l0,0c-13-26.9-18.6-51.3-14.3-62.2c1.5-3.9,4.1-5.5,5.9-6.2
			c13.3-5,34.9,22.5,49.3,52.2c13,26.9,18.6,51.3,14.3,62.2c-1.5,3.9-4.1,5.5-5.9,6.2C100.1,158,98.9,158.2,97.8,158.2z M59,101.9
			c16.7,34.5,34.7,49.9,39.3,48.2c0.5-0.2,0.9-0.8,1.3-1.7c2.9-7.3-1-28.8-14-55.8C68.9,58.1,50.9,42.7,46.3,44.4
			c-0.5,0.2-0.9,0.8-1.3,1.7C42.1,53.4,46,74.9,59,101.9L59,101.9z"/>
		<path class="st0" d="M97.2,158.6c-12.3,0-32.5-17.8-48-36.8C32.4,101.2,19.4,81.6,21,71.6c0.6-3.6,5.6-5.7,7.1-6.7
			c10.9-7,35.2,13.5,53.1,35.4l0,0c16.8,20.6,26.7,40.4,25.1,50.4c-0.6,3.6-2.5,5.5-4,6.5C100.9,158.1,99.1,158.6,97.2,158.6z
			 M33.5,71.4c-0.4,0-0.8,0.1-1,0.2s-0.3,0.5-0.4,1c-1,6.3,6.8,23.9,23.4,44.1c21.6,26.4,39.6,35.6,42.6,33.7c0.2-0.1,0.3-0.5,0.4-1
			c1-6.3-6.8-23.9-23.4-44.1l0,0C55.3,81.1,38.4,71.4,33.5,71.4z"/>
		<path class="st0" d="M99.8,155.9c-12.9,0-34.4-10.9-47.5-19.1c-16.2-10-38.8-25.4-40.7-36.1c-0.5-3.2,0.5-5.3,1.5-6.5
			c8.1-10.2,42.4,4.9,59.5,15.5c16.2,10,35.7,25.6,37.6,36.3c0.5,3.2-0.5,5.3-1.5,6.5C106.8,154.9,103.7,155.9,99.8,155.9z
			 M19.5,99.2c0,3.1,12.4,15.5,37.1,30.8c24.5,15.2,42.5,19.4,45.8,17.6c0-3.1-9.3-15.7-34-31l0,0C43.9,101.4,22.8,97.3,19.5,99.2z"
			/>
		<path class="st0" d="M73.4,145c-0.9,2,16.1,18.7,38.3,19.8c24.1,1.2,43.6-16.6,42.7-18.7c-0.8-1.9-16.5,6.3-42,5.2
			C89.5,150.3,74.2,143.2,73.4,145z"/>
	</g>
</g>
</svg>
