<?xml version="1.0" encoding="utf-8"?>
<!-- Generator: Adobe Illustrator 24.2.3, SVG Export Plug-In . SVG Version: 6.00 Build 0)  -->
<svg version="1.1" id="Layer_1" xmlns="http://www.w3.org/2000/svg" xmlns:xlink="http://www.w3.org/1999/xlink" x="0px" y="0px"
	 viewBox="0 0 268 246" style="enable-background:new 0 0 268 246;" xml:space="preserve">
<style type="text/css">
	.st0{fill:#E40B5E;}
	.st1{fill:#C6185B;}
	.st2{fill:#BF0C67;}
	.st3{fill:#C7195B;}
	.st4{fill:#E33C8E;}
</style>
<g>
	<path class="st0" d="M232.52,138.82c-3.79,3.29-7.29,6.9-11.19,10.1c-11.83,9.73-25.26,16.1-40.06,19.7
		c-9.77,2.38-19.73,2.94-29.71,2.37c-4.66-0.26-9.33-0.97-13.9-2.07c-0.92-0.22-1.9-0.18-2.85-0.26c0-0.15,0-0.31,0-0.46
		c0-52.03,0-104.06-0.01-156.1c0-1.12-0.05-2.24-0.07-3.36c2.59-0.38,4.34,1.05,5.99,2.74c10.8,11.02,18.86,23.8,24.38,38.2
		c0.14,0.37,0.34,0.72,0.51,1.08c3.06,9.17,5.61,18.52,6.1,28.17c0.42,8.19,0.45,16.42-0.7,24.65c-1.68,12-5.23,23.36-10.67,34.1
		c-5.07,10.02-11.38,19.24-19.47,27.14c-0.45,0.44-1.48,0.85-0.88,1.67c0.45,0.62,1.19-0.05,1.76-0.23
		c8.82-2.77,17.08-6.75,24.85-11.76c9.82-6.33,18.32-14.08,25.63-23.21c6.91-8.62,12.23-18.09,16.26-28.36
		c2.23-5.67,3.48-11.6,5.2-17.4c11.8-0.85,23.5-0.31,35,2.75c5.29,1.41,7.38,5.04,5.86,10.33c-4.09,14.19-10.85,26.93-20.51,38.12
		C233.49,137.37,232.7,137.88,232.52,138.82z"/>
	<path class="st1" d="M213.7,85.52c-1.72,5.8-2.97,11.74-5.2,17.4c-4.04,10.26-9.35,19.73-16.26,28.36
		c-7.32,9.13-15.82,16.88-25.63,23.21c-7.77,5.01-16.03,8.98-24.85,11.76c-0.57,0.18-1.31,0.85-1.76,0.23
		c-0.6-0.82,0.43-1.24,0.88-1.67c8.1-7.9,14.4-17.11,19.47-27.14c5.44-10.74,9-22.1,10.67-34.1c1.15-8.23,1.12-16.45,0.7-24.65
		c-0.49-9.66-3.04-19-6.1-28.17c11-8.16,22.97-14.37,36.21-18.05c5.39-1.5,9.11,0.62,10.44,6.01c2.98,12.05,4.1,24.25,2.85,36.62
		C214.78,78.74,214.18,82.13,213.7,85.52z"/>
	<path class="st0" d="M103.98,50.84c-1.36,4.91-2.96,9.76-4.04,14.75c-2.37,10.94-2.68,21.97-1.79,33.11
		c1.05,13.15,4.74,25.56,10.37,37.39c3.85,8.1,8.72,15.62,14.51,22.52c1.91,2.27,3.97,4.39,6.04,6.51c0.36,0.37,0.95,0.68,0.68,1.38
		c-30.07-7.5-65.16-36.94-73.58-80.84c-3.04-15.56-2.67-31.03,1.16-46.42c1.51-6.07,4.81-8,10.83-6.32
		C81.26,36.56,93.1,42.74,103.98,50.84z"/>
	<path class="st2" d="M395.2,211.57"/>
	<path class="st0" d="M246.45,240.38c3.37-5.37-99.02-92.16-129.09-70.39c-4.92,3.56-8.78,10.67-7.41,16.44
		c2.95,12.4,28.7,12.88,60.06,21.04C220.57,220.61,244.78,243.03,246.45,240.38z"/>
	<path class="st0" d="M11.59,233.3c1.93,6.04,134.29-16.22,137.05-53.24c0.45-6.06-2.49-13.59-7.78-16.26
		c-11.38-5.74-28.36,13.62-54.82,32.33C43.39,226.28,10.64,230.31,11.59,233.3z"/>
	<path class="st0" d="M348.27-26"/>
	<path class="st0" d="M37.14,138.84c3.67,3.2,7.09,6.65,10.84,9.77c8.07,6.71,17.03,11.81,26.74,15.66
		c8.87,3.52,18.08,5.52,27.6,6.4c11.01,1.01,21.8,0.1,32.5-2.48c0,0.15,0,0.31,0,0.46c0,0.71,0,1.42,0.01,2.13
		c-6.67,5.29-13.7,9.98-21.5,13.5c-33.24,15-73.1,7.85-99.03-17.84c-3.63-3.6-3.63-7.75,0.05-11.35
		C21.09,148.49,28.65,143.02,37.14,138.84z"/>
	<path class="st3" d="M232.52,138.82c8.74,4.25,16.5,9.86,23.31,16.76c0.86,0.87,1.47,1.98,2.19,2.98c0,1.44,0,2.89,0,4.33
		c-3.39,5.53-8.57,9.19-13.69,12.83c-13.37,9.51-28.26,14.88-44.68,16.07c-24.11,1.74-45.4-5.22-64.09-20.41
		c-0.25-0.2-0.5-0.39-0.76-0.59c0-0.71,0-1.42-0.01-2.13c0.95,0.08,1.93,0.04,2.85,0.26c4.58,1.11,9.25,1.81,13.9,2.07
		c9.99,0.57,19.95,0,29.71-2.37c14.8-3.6,28.23-9.97,40.06-19.7C225.23,145.71,228.73,142.11,232.52,138.82z"/>
	<path class="st4" d="M134.73,8.74c0.03,1.12,0.07,2.24,0.07,3.36c0,52.03,0.01,104.06,0.01,156.1c-10.7,2.57-21.49,3.49-32.5,2.48
		c-9.53-0.88-18.73-2.88-27.6-6.4c-9.71-3.85-18.67-8.95-26.74-15.66c-3.75-3.12-7.18-6.57-10.84-9.77
		c-1.49-2.67-3.74-4.74-5.56-7.15c-7.61-10.1-13.07-21.24-16.51-33.39c-1.41-4.97,0.78-8.66,5.82-9.98
		c11.6-3.04,23.39-3.57,35.28-2.67c8.42,43.9,43.52,73.35,73.58,80.84c0.27-0.7-0.31-1.01-0.68-1.38c-2.07-2.12-4.13-4.23-6.04-6.51
		c-5.79-6.9-10.65-14.43-14.51-22.52c-5.63-11.82-9.32-24.24-10.37-37.39c-0.89-11.13-0.58-22.16,1.79-33.11
		c1.08-4.99,2.69-9.83,4.04-14.75c3.41-8.12,7.07-16.11,12.05-23.44c3.93-5.78,8.28-11.21,13.2-16.18
		C130.76,9.68,132.47,8.61,134.73,8.74z"/>
</g>
</svg>
