<?xml version="1.0" encoding="iso-8859-1"?>
<!-- Generator: Adobe Illustrator 19.0.0, SVG Export Plug-In . SVG Version: 6.00 Build 0)  -->
<svg version="1.1" id="Capa_1" xmlns="http://www.w3.org/2000/svg" xmlns:xlink="http://www.w3.org/1999/xlink" x="0px" y="0px"
	 viewBox="0 0 512.001 512.001" style="enable-background:new 0 0 512.001 512.001;" xml:space="preserve">
<g>
	<g>
		<path d="M511.907,105.745c-1.34-46.756-16.186-79.981-16.817-81.373l-2.329-5.133l-5.133-2.329
			c-1.392-0.631-34.617-15.478-81.373-16.817c-43.35-1.238-107.037,9.302-164.316,66.581L90.843,217.769l59.228,59.228
			L17.563,409.505c-23.416,23.416-23.416,61.517,0,84.934c11.709,11.708,27.088,17.562,42.467,17.562
			c15.379,0,30.759-5.854,42.467-17.562l132.508-132.508l59.228,59.228l151.094-151.095
			C502.606,212.783,513.149,149.09,511.907,105.745z M81.282,473.224c-11.719,11.719-30.787,11.718-42.505,0
			c-11.719-11.719-11.719-30.787,0-42.505l89.471-89.471l42.505,42.505L81.282,473.224z M191.967,362.538l-42.505-42.505
			l21.822-21.822l42.505,42.505L191.967,362.538z M224.376,308.873l-21.249-21.248l127.011-127.011
			c5.859-5.857,15.391-5.856,21.249,0c5.858,5.858,5.858,15.391,0,21.249L224.376,308.873z M424.111,248.848l-129.88,129.88
			l-48.641-48.641l127.011-127.011c8.505-8.505,13.189-19.811,13.189-31.838s-4.684-23.334-13.189-31.839
			s-19.812-13.189-31.839-13.189s-23.334,4.684-31.838,13.189L181.913,266.41l-48.641-48.641L263.153,87.888
			c39.622-39.622,87.096-59.07,141.094-57.836c30.854,0.711,55.316,8.314,65.649,12.084c3.732,10.162,11.148,33.95,12.022,64.469
			C483.478,161.073,464.029,208.931,424.111,248.848z"/>
	</g>
</g>
<g>
</g>
<g>
</g>
<g>
</g>
<g>
</g>
<g>
</g>
<g>
</g>
<g>
</g>
<g>
</g>
<g>
</g>
<g>
</g>
<g>
</g>
<g>
</g>
<g>
</g>
<g>
</g>
<g>
</g>
</svg>
