<?xml version="1.0" encoding="utf-8"?>
<!-- Generator: Adobe Illustrator 23.0.1, SVG Export Plug-In . SVG Version: 6.00 Build 0)  -->
<svg version="1.1" id="icon" xmlns="http://www.w3.org/2000/svg" xmlns:xlink="http://www.w3.org/1999/xlink" x="0px" y="0px"
	 viewBox="0 0 67.7 52.8" style="enable-background:new 0 0 67.7 52.8;" xml:space="preserve">
<style type="text/css">
	.st0{fill:#F40B53;}
	.st1{fill:#CFEF1A;}
</style>
<g>
	<path class="st0" d="M22.4,6c-1.5-1.6,0.2-4.1,2.2-3.2c1.1,0.5,2.2,1,3.3,1.6c3.7,1.8,7.3,3.7,10.8,5.7s7,4.1,10.3,6.3
		c1.7,1.1,3.4,2.2,5,3.3c1.7,1.1,3.3,2.3,5,3.5l3.4,2.5c1,0.7,1,2.2,0.1,3l-3.2,2.4c-1.4,1.1-2.8,2.2-4.2,3.2
		c-1.4,1.1-2.8,2.1-4.3,3.1c-2.9,2.1-5.8,4.1-8.8,6s-6,3.8-9.2,5.5c-0.7,0.4-1.3,0.7-2,1.1c-1.9,1-3.8-1.4-2.4-3
		c0.5-0.6,1-1.1,1.5-1.7c2.4-2.7,4.8-5.3,7.3-7.8s5.1-4.9,7.7-7.3c1.3-1.2,2.6-2.4,4-3.5c0.3-0.3,0.6-0.5,0.9-0.8
		c1.3-1.1,3.2-0.2,3.2,1.4l0,0c0.1,1.6-1.8,2.6-3.1,1.7c-0.6-0.4-1.1-0.8-1.7-1.2c-1.6-1.2-3.3-2.4-4.9-3.6
		c-3.2-2.4-6.4-4.9-9.5-7.6c-3.1-2.6-6.1-5.3-9-8.1C24.2,7.7,23.3,6.9,22.4,6z"/>
	<path class="st1" d="M11,12.6c-1.3-1.2,0-3.3,1.5-2.6c0.9,0.3,1.8,0.7,2.7,1.1c2.9,1.3,5.8,2.6,8.6,4.1c2.8,1.4,5.6,3,8.3,4.5
		c1.4,0.8,2.7,1.6,4,2.4s2.7,1.7,4,2.5l2.6,1.7c0.8,0.6,1,1.8,0.2,2.5l-2.2,2.1c-1,0.9-2,1.9-3.1,2.8c-1,0.9-2.1,1.8-3.1,2.7
		c-2.1,1.8-4.3,3.5-6.5,5.1c-2.2,1.7-4.5,3.3-6.8,4.8c-0.5,0.3-1,0.6-1.5,0.9c-1.4,0.9-3-0.9-2-2.3c0.3-0.5,0.7-0.9,1-1.4
		c1.7-2.2,3.5-4.4,5.3-6.5c1.8-2.1,3.7-4.1,5.6-6.1c1-1,1.9-2,2.9-3c0.2-0.2,0.5-0.5,0.7-0.7c0.9-0.9,2.4-0.3,2.6,1l0,0
		c0.1,1.3-1.2,2.2-2.3,1.5c-0.5-0.3-0.9-0.6-1.4-0.9c-1.3-0.8-2.6-1.7-3.9-2.6c-2.6-1.8-5.2-3.6-7.7-5.6c-2.5-1.9-5-3.9-7.4-6.1
		C12.4,13.9,11.7,13.3,11,12.6z"/>
</g>
</svg>
