<?xml version="1.0" encoding="utf-8"?>
<!-- Generator: Adobe Illustrator 23.0.1, SVG Export Plug-In . SVG Version: 6.00 Build 0)  -->
<svg version="1.1" id="Layer_1" xmlns="http://www.w3.org/2000/svg" xmlns:xlink="http://www.w3.org/1999/xlink" x="0px" y="0px"
	 viewBox="0 0 124 124" style="enable-background:new 0 0 124 124;" xml:space="preserve">
<style type="text/css">
	.st0{fill:#F40B53;}
</style>
<g>
	<path class="st0" d="M62.7,2.5c1.5,7,2.5,14,3.4,21c0.9,7,1.5,14,2,21.1c0.4,7,0.5,14,0.6,21c0.1,7,0,14-0.5,21
		c-0.4,7-1.2,14-1.7,20.9c-0.1,1.7-0.3,3.5-0.3,5.2l0,1.3l0,0.6l0,0.9c-0.7,0.5,1.6-0.6-1.9,2.9c-4.4,0.4-4.3-3-4.1-2
		c-0.1-0.3-0.1-0.5-0.1-0.5l0-0.2c0-0.2,0-0.4,0-0.5c0-0.3,0-0.5,0-0.8l0.1-1.4l1.1-10.6c0.7-7,1.2-14,1.8-21.1
		c0.2-1.8,0.3-3.5,0.5-5.3c0.2-1.8,0.4-3.6,0.9-5.6c0.1-0.3,0.1-0.5,0.3-0.9c0.1-0.3,0.3-0.7,0.4-0.9c0.2-0.4,0.3-0.7,0.4-1.1
		c0.3-0.7,0.5-1.5,0.6-2.2l0.5-2.5c0.2-1,0.5-2.1,1-3.1l0.4-0.8l0.3-0.7c0.2-0.4,0.5-0.9,0.7-1.3c0.5-0.9,0.9-1.7,1.5-2.5
		c1.1-1.7,2.3-3.2,3.7-4.7c2.8-2.9,6.1-5.5,9.7-7.4c1.8-0.9,3.7-1.7,5.7-2.3c2-0.6,4-1.1,6.1-1.3c1-0.1,2.2-0.2,3.1-0.2
		c1,0,2.1-0.1,3.2,0c2.3,0.1,4.9,0.6,7.4,1.8c1.3,0.6,2.4,1.3,3.5,2.2l0.8,0.7l0.3,0.3l0.3,0.3c0.5,0.4,0.9,0.9,1.4,1.4
		c1.7,2,3.4,4.6,4,7.9c0.3,1.6,0.3,3.4,0,5.1c-0.3,1.7-0.9,3.3-1.7,4.7c-0.8,1.4-1.7,2.6-2.6,3.6c-1,1-2,1.9-3,2.6
		c-1,0.7-2.1,1.4-3.2,2c-1.2,0.6-2.5,1.1-3.8,1.5c-1.3,0.4-2.6,0.6-4,0.7c-0.7,0.1-1.4,0.1-2.1,0.1l-1.4,0c-3.5-0.1-7-0.3-10.5-0.5
		c-14-0.9-28-2.2-42-4c-14-1.8-27.9-3.8-41.8-6.9L4,60.3c14.1-1.7,28.1-2.4,42.2-2.8c14-0.4,28-0.3,42,0.1c3.5,0.1,7,0.3,10.5,0.5
		l1.3,0.1c0.2,0,0.3,0,0.5,0c0.4,0,0.8-0.1,1.2-0.2c0.4-0.1,0.7-0.2,1.1-0.4c0.4-0.2,0.9-0.4,1.3-0.7c0.4-0.3,0.8-0.5,1-0.8
		c0.3-0.2,0.4-0.4,0.6-0.6c0.2-0.3,0.2-0.1,0.3-0.3c0.1-0.1-0.1-0.7-0.6-1.4c-0.1-0.2-0.3-0.3-0.4-0.5l-0.1-0.1l-0.1-0.1l-0.2-0.2
		c-0.3-0.2-0.5-0.5-0.9-0.7c-0.7-0.4-1.5-0.7-2.7-0.9c-0.6-0.1-1.2-0.1-2-0.2c-0.8,0-1.5,0-2.2,0c-2.8,0.1-5.6,0.6-8.4,1.6
		c-1.4,0.5-2.7,1-4,1.7c-1.3,0.7-2.5,1.5-3.8,2.3c-0.6,0.5-1.2,0.9-1.7,1.4L78,58.9l-0.8,0.8c-0.5,0.5-1.1,1.2-1.6,1.7
		c-0.2,0.3-0.5,0.6-0.7,0.9l-0.3,0.5l-0.2,0.2l-0.1,0.1l0,0.1c0.1-0.2,0,0,0-0.1c-0.4,0.5-0.6,1.1-0.9,1.8c-0.3,0.7-0.6,1.6-1,2.5
		c-0.4,0.9-0.8,1.8-1.3,2.7c-0.2,0.4-0.5,0.9-0.7,1.3c-0.1,0.2-0.1,0.2-0.2,0.3C70,71.8,70,72,69.9,72.1c-0.5,1.3-1,3-1.3,4.6
		c-0.4,1.7-0.7,3.4-1,5.1c-1.1,6.8-1.7,13.8-1.9,20.8c-0.1,3.5-0.1,7,0.1,10.4l0.1,1.2c0,0.2,0,0.4,0.1,0.5c0,0.1,0,0.1,0,0.1l0-0.1
		c0,0,0-0.2-0.1-0.4c0.2,1,0.3-2.3-4.1-1.9c-3.4,3.4-1.2,2.3-1.9,2.7c0,0.2,0,0,0,0l-0.1-0.3l-0.1-0.7l-0.2-1.3l-0.7-5.3
		c-0.9-7.1-1.8-14.1-2.2-21.1c-0.5-7-0.5-14.1-0.3-21.1c0.2-7,0.5-14,1-21c0.3-7,0.7-14,1.4-21c0.7-7,1.4-14,2.7-21L62.7,2.5z"/>
</g>
</svg>
